<?xml version="1.0" encoding="UTF-8" standalone="no"?><!DOCTYPE svg PUBLIC "-//W3C//DTD SVG 1.1//EN" "http://www.w3.org/Graphics/SVG/1.1/DTD/svg11.dtd"><svg width="100%" height="100%" viewBox="0 0 1192 125" version="1.1" xmlns="http://www.w3.org/2000/svg" xmlns:xlink="http://www.w3.org/1999/xlink" xml:space="preserve" xmlns:serif="http://www.serif.com/" style="fill-rule:evenodd;clip-rule:evenodd;stroke-linejoin:round;stroke-miterlimit:2;"><g id="logo-white"><path d="M68.551,74.546c7.143,-8.513 6.03,-21.228 -2.482,-28.371c-8.516,-7.145 -21.231,-6.033 -28.374,2.48l-29.132,34.717c-7.143,8.513 -6.03,21.228 2.486,28.373c8.512,7.143 21.227,6.031 28.37,-2.482l29.132,-34.717Z" style="fill:#6975fc;"/><path d="M189.936,109.531c7.146,-8.516 6.034,-21.231 -2.482,-28.376c-8.516,-7.146 -21.231,-6.034 -28.376,2.482c-7.143,8.513 -6.031,21.228 2.485,28.373c8.516,7.146 21.23,6.034 28.373,-2.479Z" style="fill:#59d3c7;"/><path d="M175.367,35.119c7.146,-8.515 6.033,-21.23 -2.479,-28.373c-8.516,-7.146 -21.231,-6.033 -28.377,2.482l-61.496,73.289c-7.145,8.515 -6.033,21.23 2.483,28.376c8.513,7.143 21.227,6.03 28.373,-2.486l61.496,-73.288Z" style="fill:#30b1f3;"/><g><path d="M282.6,65.123c0.803,1.511 1.547,3.081 2.231,4.71c0.685,1.63 1.358,3.27 2.019,4.923c0.661,-1.7 1.346,-3.376 2.054,-5.029c0.709,-1.653 1.464,-3.235 2.267,-4.746l30.317,-56.737c0.377,-0.709 0.767,-1.275 1.168,-1.7c0.402,-0.425 0.85,-0.732 1.346,-0.921c0.496,-0.189 1.051,-0.307 1.665,-0.354c0.614,-0.047 1.346,-0.071 2.196,-0.071l14.379,-0l-0,102.425l-16.788,-0l0,-66.158c0,-1.228 0.036,-2.574 0.106,-4.038c0.071,-1.464 0.178,-2.951 0.319,-4.462l-30.954,58.083c-0.708,1.322 -1.629,2.349 -2.762,3.081c-1.134,0.732 -2.456,1.098 -3.967,1.098l-2.621,0c-1.511,0 -2.833,-0.366 -3.967,-1.098c-1.133,-0.732 -2.054,-1.759 -2.762,-3.081l-31.379,-58.296c0.189,1.558 0.318,3.081 0.389,4.569c0.071,1.487 0.107,2.869 0.107,4.144l-0,66.158l-16.788,-0l0,-102.425l14.379,-0c0.85,-0 1.582,0.024 2.196,0.071c0.614,0.047 1.169,0.165 1.665,0.354c0.495,0.189 0.956,0.496 1.381,0.921c0.425,0.425 0.826,0.991 1.204,1.7l30.6,56.879Z" style="fill:#fff;fill-rule:nonzero;"/><path d="M380.563,34.948l-0,72.675l-17.496,-0l-0,-72.675l17.496,-0Zm2.62,-21.179c0,1.511 -0.307,2.928 -0.92,4.25c-0.614,1.322 -1.429,2.479 -2.444,3.471c-1.016,0.991 -2.208,1.782 -3.577,2.372c-1.37,0.591 -2.834,0.886 -4.392,0.886c-1.511,-0 -2.94,-0.295 -4.285,-0.886c-1.346,-0.59 -2.515,-1.381 -3.507,-2.372c-0.991,-0.992 -1.782,-2.149 -2.373,-3.471c-0.59,-1.322 -0.885,-2.739 -0.885,-4.25c0,-1.559 0.295,-3.022 0.885,-4.392c0.591,-1.369 1.382,-2.55 2.373,-3.542c0.992,-0.991 2.161,-1.782 3.507,-2.373c1.345,-0.59 2.774,-0.885 4.285,-0.885c1.558,0 3.022,0.295 4.392,0.885c1.369,0.591 2.561,1.382 3.577,2.373c1.015,0.992 1.83,2.173 2.444,3.542c0.613,1.37 0.92,2.833 0.92,4.392Z" style="fill:#fff;fill-rule:nonzero;"/><path d="M400.325,107.623l0,-72.675l10.271,-0c1.794,-0 3.046,0.33 3.754,0.992c0.708,0.661 1.181,1.794 1.417,3.4l1.062,8.783c2.597,-4.486 5.643,-8.028 9.138,-10.625c3.494,-2.597 7.414,-3.896 11.758,-3.896c3.589,0 6.564,0.826 8.925,2.479l-2.267,13.104c-0.141,0.85 -0.448,1.452 -0.92,1.807c-0.473,0.354 -1.11,0.531 -1.913,0.531c-0.708,-0 -1.676,-0.165 -2.904,-0.496c-1.228,-0.33 -2.857,-0.496 -4.888,-0.496c-3.636,0 -6.752,1.004 -9.35,3.011c-2.597,2.007 -4.793,4.946 -6.587,8.818l-0,45.263l-17.496,-0Z" style="fill:#fff;fill-rule:nonzero;"/><path d="M458.196,107.623l-0,-72.675l10.271,-0c1.794,-0 3.046,0.33 3.754,0.992c0.708,0.661 1.18,1.794 1.417,3.4l1.062,8.783c2.597,-4.486 5.643,-8.028 9.138,-10.625c3.494,-2.597 7.413,-3.896 11.758,-3.896c3.589,0 6.564,0.826 8.925,2.479l-2.267,13.104c-0.141,0.85 -0.448,1.452 -0.921,1.807c-0.472,0.354 -1.109,0.531 -1.912,0.531c-0.708,-0 -1.677,-0.165 -2.904,-0.496c-1.228,-0.33 -2.857,-0.496 -4.888,-0.496c-3.636,0 -6.753,1.004 -9.35,3.011c-2.597,2.007 -4.793,4.946 -6.587,8.818l-0,45.263l-17.496,-0Z" style="fill:#fff;fill-rule:nonzero;"/><path d="M546.1,33.815c4.581,-0 8.795,0.732 12.644,2.195c3.848,1.464 7.166,3.601 9.952,6.411c2.786,2.81 4.958,6.257 6.517,10.341c1.558,4.085 2.337,8.748 2.337,13.99c0,1.322 -0.059,2.42 -0.177,3.294c-0.118,0.873 -0.331,1.558 -0.638,2.054c-0.307,0.496 -0.72,0.85 -1.239,1.063c-0.52,0.212 -1.181,0.318 -1.983,0.318l-44.909,0c0.52,7.461 2.527,12.939 6.021,16.434c3.494,3.494 8.122,5.241 13.883,5.241c2.834,0 5.277,-0.33 7.332,-0.991c2.054,-0.662 3.848,-1.393 5.383,-2.196c1.535,-0.803 2.88,-1.535 4.037,-2.196c1.157,-0.661 2.279,-0.992 3.365,-0.992c0.708,0 1.322,0.142 1.842,0.425c0.519,0.284 0.968,0.685 1.346,1.204l5.1,6.375c-1.937,2.267 -4.109,4.168 -6.517,5.703c-2.408,1.534 -4.923,2.762 -7.544,3.683c-2.621,0.921 -5.289,1.57 -8.004,1.948c-2.715,0.378 -5.348,0.566 -7.898,0.566c-5.053,0 -9.751,-0.838 -14.096,-2.514c-4.344,-1.677 -8.122,-4.156 -11.333,-7.438c-3.211,-3.282 -5.738,-7.343 -7.579,-12.183c-1.842,-4.84 -2.763,-10.448 -2.763,-16.823c0,-4.958 0.803,-9.621 2.409,-13.989c1.605,-4.369 3.907,-8.17 6.906,-11.405c2.998,-3.234 6.658,-5.796 10.979,-7.685c4.321,-1.889 9.196,-2.833 14.627,-2.833Zm0.354,12.537c-5.1,0 -9.09,1.44 -11.971,4.321c-2.88,2.88 -4.722,6.965 -5.525,12.254l32.867,0c0,-2.267 -0.307,-4.403 -0.921,-6.41c-0.614,-2.007 -1.558,-3.766 -2.833,-5.277c-1.275,-1.512 -2.881,-2.704 -4.817,-3.577c-1.936,-0.874 -4.203,-1.311 -6.8,-1.311Z" style="fill:#fff;fill-rule:nonzero;"/><path d="M591.788,107.623l-0,-72.675l10.695,-0c2.267,-0 3.755,1.062 4.463,3.187l1.204,5.738c1.464,-1.511 3.01,-2.881 4.64,-4.108c1.629,-1.228 3.352,-2.291 5.17,-3.188c1.818,-0.897 3.766,-1.582 5.844,-2.054c2.078,-0.472 4.345,-0.708 6.8,-0.708c3.967,-0 7.485,0.672 10.554,2.018c3.07,1.346 5.632,3.235 7.686,5.667c2.054,2.432 3.612,5.336 4.675,8.712c1.062,3.377 1.594,7.096 1.594,11.157l-0,46.254l-17.496,-0l-0,-46.254c-0,-4.439 -1.027,-7.875 -3.082,-10.306c-2.054,-2.432 -5.135,-3.648 -9.243,-3.648c-3.023,-0 -5.856,0.684 -8.5,2.054c-2.645,1.369 -5.148,3.234 -7.509,5.596l0,52.558l-17.495,-0Z" style="fill:#fff;fill-rule:nonzero;"/><path d="M790.688,107.623l-14.734,-0c-1.653,-0 -3.01,-0.413 -4.073,-1.24c-1.062,-0.826 -1.83,-1.853 -2.302,-3.081l-7.65,-20.896l-42.429,0l-7.65,20.896c-0.378,1.086 -1.122,2.078 -2.231,2.975c-1.11,0.897 -2.468,1.346 -4.073,1.346l-14.804,-0l40.233,-102.425l19.479,-0l40.234,102.425Zm-66.3,-38.675l32.654,-0l-12.467,-34.071c-0.567,-1.511 -1.192,-3.294 -1.877,-5.348c-0.685,-2.054 -1.358,-4.285 -2.019,-6.694c-0.661,2.409 -1.31,4.652 -1.948,6.73c-0.637,2.077 -1.263,3.895 -1.877,5.454l-12.466,33.929Z" style="fill:#fff;fill-rule:nonzero;"/><rect x="803.579" y="5.198" width="19.125" height="102.425" style="fill:#fff;fill-rule:nonzero;"/><path d="M905.367,4.065c4.722,-0 9.043,0.696 12.962,2.089c3.92,1.393 7.272,3.365 10.059,5.915c2.786,2.55 4.958,5.619 6.516,9.208c1.559,3.589 2.338,7.579 2.338,11.971c-0,3.778 -0.555,7.272 -1.665,10.483c-1.11,3.211 -2.597,6.281 -4.462,9.209c-1.866,2.927 -4.05,5.761 -6.552,8.5c-2.503,2.738 -5.124,5.525 -7.863,8.358l-23.092,23.587c2.267,-0.661 4.486,-1.168 6.659,-1.523c2.172,-0.354 4.25,-0.531 6.233,-0.531l26.279,0c1.889,0 3.388,0.531 4.498,1.594c1.11,1.063 1.665,2.467 1.665,4.215l-0,10.483l-70.267,-0l0,-5.808c0,-1.181 0.248,-2.409 0.744,-3.684c0.496,-1.275 1.287,-2.455 2.373,-3.541l31.096,-31.167c2.597,-2.645 4.922,-5.171 6.977,-7.579c2.054,-2.409 3.777,-4.793 5.17,-7.154c1.393,-2.362 2.456,-4.758 3.188,-7.19c0.732,-2.432 1.098,-4.994 1.098,-7.685c-0,-2.456 -0.354,-4.616 -1.063,-6.482c-0.708,-1.865 -1.723,-3.435 -3.045,-4.71c-1.323,-1.275 -2.893,-2.231 -4.711,-2.869c-1.818,-0.637 -3.86,-0.956 -6.127,-0.956c-4.203,-0 -7.662,1.062 -10.377,3.187c-2.715,2.125 -4.616,4.982 -5.702,8.571c-0.52,1.795 -1.299,3.081 -2.338,3.861c-1.039,0.779 -2.361,1.168 -3.966,1.168c-0.709,0 -1.488,-0.07 -2.338,-0.212l-9.208,-1.629c0.708,-4.911 2.078,-9.22 4.108,-12.927c2.031,-3.707 4.569,-6.8 7.615,-9.28c3.046,-2.479 6.54,-4.344 10.483,-5.595c3.943,-1.252 8.181,-1.877 12.715,-1.877Z" style="fill:#fff;fill-rule:nonzero;"/><path d="M1023.52,56.41c-0,8.925 -0.957,16.682 -2.869,23.269c-1.913,6.588 -4.557,12.03 -7.933,16.327c-3.377,4.297 -7.367,7.497 -11.971,9.598c-4.604,2.102 -9.575,3.152 -14.911,3.152c-5.336,0 -10.282,-1.05 -14.839,-3.152c-4.557,-2.101 -8.512,-5.301 -11.865,-9.598c-3.353,-4.297 -5.973,-9.739 -7.862,-16.327c-1.889,-6.587 -2.834,-14.344 -2.834,-23.269c0,-8.972 0.945,-16.74 2.834,-23.304c1.889,-6.564 4.509,-11.994 7.862,-16.291c3.353,-4.298 7.308,-7.497 11.865,-9.598c4.557,-2.102 9.503,-3.152 14.839,-3.152c5.336,-0 10.307,1.05 14.911,3.152c4.604,2.101 8.594,5.3 11.971,9.598c3.376,4.297 6.02,9.727 7.933,16.291c1.912,6.564 2.869,14.332 2.869,23.304Zm-18.063,0c0,-7.413 -0.543,-13.552 -1.629,-18.416c-1.086,-4.864 -2.538,-8.736 -4.356,-11.617c-1.818,-2.88 -3.908,-4.899 -6.269,-6.056c-2.361,-1.157 -4.817,-1.736 -7.367,-1.736c-2.502,0 -4.923,0.579 -7.26,1.736c-2.338,1.157 -4.404,3.176 -6.198,6.056c-1.794,2.881 -3.223,6.753 -4.285,11.617c-1.063,4.864 -1.594,11.003 -1.594,18.416c-0,7.414 0.531,13.553 1.594,18.417c1.062,4.864 2.491,8.736 4.285,11.617c1.794,2.88 3.86,4.899 6.198,6.056c2.337,1.157 4.758,1.735 7.26,1.735c2.55,0 5.006,-0.578 7.367,-1.735c2.361,-1.157 4.451,-3.176 6.269,-6.056c1.818,-2.881 3.27,-6.753 4.356,-11.617c1.086,-4.864 1.629,-11.003 1.629,-18.417Z" style="fill:#fff;fill-rule:nonzero;"/><path d="M1069.7,4.065c4.722,-0 9.043,0.696 12.963,2.089c3.919,1.393 7.272,3.365 10.058,5.915c2.786,2.55 4.958,5.619 6.517,9.208c1.558,3.589 2.337,7.579 2.337,11.971c0,3.778 -0.555,7.272 -1.665,10.483c-1.109,3.211 -2.597,6.281 -4.462,9.209c-1.865,2.927 -4.049,5.761 -6.552,8.5c-2.503,2.738 -5.124,5.525 -7.863,8.358l-23.091,23.587c2.266,-0.661 4.486,-1.168 6.658,-1.523c2.172,-0.354 4.25,-0.531 6.233,-0.531l26.28,0c1.888,0 3.388,0.531 4.497,1.594c1.11,1.063 1.665,2.467 1.665,4.215l0,10.483l-70.267,-0l0,-5.808c0,-1.181 0.248,-2.409 0.744,-3.684c0.496,-1.275 1.287,-2.455 2.373,-3.541l31.096,-31.167c2.597,-2.645 4.923,-5.171 6.977,-7.579c2.054,-2.409 3.778,-4.793 5.171,-7.154c1.393,-2.362 2.455,-4.758 3.187,-7.19c0.732,-2.432 1.098,-4.994 1.098,-7.685c0,-2.456 -0.354,-4.616 -1.062,-6.482c-0.709,-1.865 -1.724,-3.435 -3.046,-4.71c-1.322,-1.275 -2.893,-2.231 -4.711,-2.869c-1.818,-0.637 -3.86,-0.956 -6.127,-0.956c-4.202,-0 -7.661,1.062 -10.377,3.187c-2.715,2.125 -4.616,4.982 -5.702,8.571c-0.519,1.795 -1.298,3.081 -2.337,3.861c-1.039,0.779 -2.361,1.168 -3.967,1.168c-0.708,0 -1.487,-0.07 -2.337,-0.212l-9.209,-1.629c0.709,-4.911 2.078,-9.22 4.108,-12.927c2.031,-3.707 4.569,-6.8 7.615,-9.28c3.046,-2.479 6.54,-4.344 10.483,-5.595c3.943,-1.252 8.182,-1.877 12.715,-1.877Z" style="fill:#fff;fill-rule:nonzero;"/><path d="M1179.28,12.635c0,2.503 -0.791,4.534 -2.373,6.092c-1.582,1.558 -4.214,2.338 -7.898,2.338l-28.191,-0l-3.684,21.391c4.628,-0.944 8.855,-1.416 12.68,-1.416c5.383,-0 10.117,0.802 14.202,2.408c4.084,1.605 7.52,3.825 10.306,6.658c2.786,2.834 4.887,6.151 6.304,9.952c1.417,3.802 2.125,7.898 2.125,12.29c0,5.43 -0.956,10.389 -2.869,14.875c-1.912,4.486 -4.568,8.323 -7.968,11.51c-3.4,3.188 -7.426,5.655 -12.078,7.402c-4.651,1.748 -9.716,2.621 -15.193,2.621c-3.211,0 -6.257,-0.33 -9.138,-0.991c-2.88,-0.662 -5.584,-1.547 -8.11,-2.657c-2.527,-1.109 -4.864,-2.384 -7.013,-3.825c-2.148,-1.44 -4.073,-2.963 -5.773,-4.568l5.384,-7.438c1.133,-1.605 2.644,-2.408 4.533,-2.408c1.181,-0 2.373,0.378 3.577,1.133c1.204,0.756 2.609,1.582 4.215,2.479c1.605,0.897 3.471,1.724 5.596,2.479c2.124,0.756 4.698,1.134 7.72,1.134c3.211,-0 6.045,-0.52 8.5,-1.559c2.456,-1.038 4.498,-2.491 6.127,-4.356c1.63,-1.865 2.857,-4.085 3.684,-6.658c0.826,-2.574 1.239,-5.372 1.239,-8.394c0,-5.572 -1.617,-9.928 -4.852,-13.069c-3.234,-3.14 -7.992,-4.71 -14.273,-4.71c-4.958,-0 -9.94,0.897 -14.946,2.692l-10.908,-3.117l8.5,-49.725l50.575,-0l0,7.437Z" style="fill:#fff;fill-rule:nonzero;"/></g></g></svg>